<?xml version="1.0" encoding="utf-8"?>
<!-- Generator: Adobe Illustrator 22.0.1, SVG Export Plug-In . SVG Version: 6.00 Build 0)  -->
<svg version="1.1" id="Layer_1" xmlns="http://www.w3.org/2000/svg" xmlns:xlink="http://www.w3.org/1999/xlink" x="0px" y="0px"
	 viewBox="0 0 810.7 262" style="enable-background:new 0 0 810.7 262;" xml:space="preserve">
<style type="text/css">
	.st0{fill:#01BFE7;}
	.st1{fill:#018CAA;}
	.st2{fill:#D70D8C;}
</style>
<g>
	<path class="st0" d="M277.1,0c0,1,0.9,1.4,1.5,1.9c7.6,7.5,15.2,15,22.7,22.6c0.7,0.7,1.9,1.2,0.5,2.5
		c-8.1,8.3-16.2,16.6-24.3,24.9c-0.3-0.2-0.7-0.4-1-0.6c0-3.4-0.1-6.8,0-10.1c0.1-2-0.4-2.7-2.6-2.7c-8.5,0.1-17,0.1-25.5,0
		c-2.1,0-2.7,0.5-2.7,2.7c0.1,33.9,0.1,67.8,0.2,101.7c0,12.7-4.3,23.6-13.8,32.1c-15,13.3-37.2,13.7-52.8,1.1
		c-1.2-1-1.8-1.1-3.1-0.1c-24.4,19.6-60.3,6.3-66.1-24.4c-0.4-2.1-0.6-4.2-0.6-6.3c-0.1-17.1,0-34.2,0-51.2c0-0.4,0.1-0.8,0.1-1.3
		c9.3,0,18.5,0,27.8,0c0.1,1.2,0.2,2.3,0.2,3.5c0,16.2,0.5,32.5-0.2,48.7c-0.4,8,8.9,15.9,18.3,12c5.2-2.1,8.4-6.8,8.4-12.6
		c0-30.5,0-61.1,0-91.6c0-13.2,0-26.4-0.1-39.6c0-1.8,0.6-2.2,2.3-2.2c7.7,0.1,15.5,0.1,23.2,0c1.9,0,2.2,0.6,2.2,2.3
		c-0.1,12.5,0.1,25.1-0.1,37.6c-0.4,30.7,0,61.4-0.2,92.1c-0.1,12.9,11.9,17.9,20.1,13.4c4.3-2.3,6.7-6,7.2-10.9
		c0.1-1.1,0.1-2.2,0.1-3.3c0-29.1,0-58.2,0-87.3c0-13.8,0-27.6-0.2-41.4c0-2.2,0.6-2.6,2.7-2.6c17.6,0.1,35.2,0,52.7,0.1
		c2.1,0,2.8-0.5,2.6-2.6c-0.2-2.8,0-5.7,0-8.6C276.8,0,277,0,277.1,0z"/>
	<path class="st1" d="M0,193.8c81.7,0,163.4,0,245-0.1c1.9,0,2.4,0.4,2.4,2.3c-0.1,6.3-0.2,12.6,0,18.9c0.1,2.1-0.6,2.6-2.6,2.6
		c-46.4-0.1-92.7,0-139.1,0c-35.2,0-70.5,0-105.7,0C0,209.7,0,201.8,0,193.8z"/>
	<path class="st0" d="M810.7,182.7c-0.8,0.5-0.6,1.5-0.8,2.3c-3.1,11.9-13.5,19.9-25.8,19.8c-6.2,0-6.2,0-6.2-6.4c0-1.7,0.1-3.4,0-5
		c-0.1-1.7,0.6-2,2-1.9c2.5,0.1,5,0.4,7.5-0.2c3.9-0.8,7.3-3.6,8.6-7.3c-0.5-0.4-1,0.1-1.4,0.3c-13.2,5.3-27.7-3.2-29.3-17.4
		c-1.1-10.4-0.2-20.8-0.4-31.3c0-1.1,0.4-1.5,1.5-1.4c3.4,0,6.7,0.1,10.1,0c1.7,0,1.4,1,1.4,2c0,8.5,0,17,0,25.5
		c0,1.8,0.2,3.5,0.8,5.2c1.2,3.4,3.5,5.5,7.1,6.1c3.8,0.7,6.9-0.7,9.3-3.7c1.8-2.3,2.5-4.9,2.5-7.8c0-8.3,0-16.7-0.1-25
		c0-1.9,0.4-2.5,2.3-2.4c3.6,0.2,7.2,0,10.8,0C810.7,150.4,810.7,166.6,810.7,182.7z"/>
	<path class="st1" d="M45.4,262c-0.5-0.8-1.4-0.7-2.2-1c-9.9-3.1-16.4-13.4-14.8-23.3c1.7-10.9,10.6-18.7,21.4-18.6
		c10.7,0,19.8,8.1,21.2,18.8c1.3,10.2-5.2,20.2-15.1,23.2c-0.8,0.3-1.9,0.1-2.5,0.9C50.8,262,48.1,262,45.4,262z"/>
	<path class="st1" d="M206,262c-0.5-0.8-1.4-0.7-2.2-1c-9.9-3.1-16.4-13.4-14.8-23.3c1.7-10.9,10.6-18.7,21.4-18.6
		c10.7,0,19.8,8.1,21.2,18.8c1.3,10.2-5.2,20.2-15.1,23.2c-0.8,0.3-1.9,0.1-2.5,0.9C211.4,262,208.7,262,206,262z"/>
	<path class="st2" d="M137.5,92.9c-9.3,0-18.5,0-27.8,0c0-13.9-0.1-27.8-0.1-41.6c0-7.3-5-12.6-12.2-12.9C90,38,83.8,43.3,83.2,50.4
		c-0.1,1.1-0.1,2.2-0.1,3.3c0,42.9,0,85.8,0.1,128.7c0,2.3-0.5,3-2.9,2.9c-7.2-0.2-14.5-0.1-21.7,0c-2.2,0-2.9-0.5-2.9-2.9
		c0-43.2,0-86.3,0-129.5c0-5.7-1.9-10.2-7-13c-9.4-5.2-20.2,1.6-20.3,12.6c-0.1,11.9,0,23.9,0,35.8c0,17.2-0.3,34.5,0.1,51.7
		c0.3,14.1,0,28.2,0.3,42.3c0.1,2.4-0.7,2.9-2.9,2.8c-7.5-0.1-15-0.1-22.5,0c-1.7,0-2.3-0.4-2.3-2.2c0-43.9-0.2-87.8,0.1-131.7
		c0.1-16.7,8.3-29.2,23.4-36.2C39.9,8,54.5,10,67.8,20.3c1.3,1,1.9,1,3.1,0c24.5-19.6,60.5-6.2,66.1,24.7c0.4,2.1,0.6,4.2,0.6,6.3
		c0.1,13.4,0,26.7,0,40.1C137.7,91.9,137.6,92.4,137.5,92.9z"/>
	<path class="st2" d="M494.1,158.9c0-8-0.3-16,0.1-24c0.3-7.8,4.5-13.5,11.5-16.8c7.1-3.4,14.1-2.7,20.5,1.8c1.5,1,2.3,1,3.8,0
		c6.5-4.6,13.6-5.2,20.8-1.7c7.5,3.7,11.3,10,11.4,18.2c0.2,15.6,0,31.3,0.1,46.9c0,1.6-0.5,2-2,1.9c-3.1-0.1-6.2-0.2-9.3,0
		c-1.9,0.1-2.4-0.5-2.3-2.4c0.1-14.7,0-29.4,0-44.2c0-0.9,0-1.9-0.1-2.8c-0.5-3.9-3.6-6.5-7.3-6.2c-3.7,0.3-6.2,3.1-6.2,7.2
		c0,15.1-0.1,30.3,0,45.4c0,2.2-0.4,3.1-2.8,2.9c-2.9-0.2-5.9-0.2-8.8,0c-1.8,0.1-2.2-0.6-2.2-2.3c0.1-15.1,0-30.3,0.1-45.4
		c0-3.2-0.9-5.8-4-7.2c-4.5-2.1-9.4,1.1-9.5,6.3c-0.1,8.6,0,17.2,0,25.7c0,6.9-0.1,13.8,0,20.7c0,1.8-0.5,2.3-2.3,2.2
		c-3.1-0.1-6.2-0.1-9.3,0c-1.8,0.1-2.3-0.4-2.3-2.2c0.1-8.1,0-16.2,0-24.2C494,158.9,494.1,158.9,494.1,158.9z"/>
	<path class="st0" d="M627.7,143.4c0-8.1,0-16.1,0-24.2c0-1.6,0.3-2.3,2.1-2.2c3.2,0.2,6.4,0.2,9.6,0c1.9-0.1,2.2,0.7,2.2,2.3
		c-0.1,15,0,29.9,0,44.9c0,1.2,0,2.4,0.3,3.5c0.8,3,3.8,5,6.9,4.8c3.2-0.2,5.7-2.5,6.2-5.6c0.1-1,0.2-2,0.2-3c0-14.8,0-29.6,0-44.4
		c0-2,0.5-2.6,2.5-2.5c2.9,0.2,5.9,0.2,8.8,0c1.9-0.1,2.6,0.4,2.5,2.5c-0.1,15-0.1,29.9,0,44.9c0,1.2,0,2.4,0.3,3.5
		c0.8,2.8,3.6,4.7,6.5,4.7c2.9,0,5.6-2,6.4-4.8c0.4-1.4,0.4-2.8,0.4-4.3c0-14.7,0-29.4,0-44.2c0-1.8,0.4-2.5,2.4-2.4
		c3.2,0.2,6.4,0.1,9.6,0c1.3,0,1.8,0.3,1.8,1.7c0,15.9,0.1,31.8-0.1,47.7c-0.1,8-4.2,14.2-11.4,17.7c-7.3,3.6-14.5,2.8-21.2-2
		c-1.2-0.9-1.8-0.8-3,0.1c-6.5,4.6-13.5,5.5-20.7,2.1c-7.2-3.4-11.4-9.2-11.7-17.2c-0.3-7.9-0.1-15.8-0.1-23.7
		C627.8,143.4,627.8,143.4,627.7,143.4z"/>
	<path class="st2" d="M446.7,182c0,7-0.1,13.7,0,20.3c0,2-0.6,2.6-2.6,2.5c-2.8-0.2-5.7-0.1-8.6,0c-1.4,0-2.1-0.2-2.1-1.9
		c0.1-22.3,0-44.5,0.1-66.8c0-0.6-0.4-1.5,0.6-1.7c1-0.1,2.2-0.5,3.1,0.6c1.2,1.4,2.4,2.8,3.6,4.2c0.8,1,1.3,1,2.3,0.2
		c3.8-3.3,8.1-5.8,13.1-6.6c13.4-2.1,26.2,6.8,28.8,20.1c1.2,6,0.8,11.8-1.3,17.6c-4.9,13.3-21.5,20.1-33.9,13.2
		C449,183.1,448.1,182.7,446.7,182z M472.6,159.4c0-8.1-5.2-13.8-12.8-13.9c-7.5-0.1-13,5.7-13,13.7c0,8,5.4,13.9,12.8,14
		C467.1,173.2,472.5,167.4,472.6,159.4z"/>
	<path class="st2" d="M603.1,183.4c-6,3.6-11.6,3.5-17.2,1.2c-9.6-3.9-13.9-11.5-14.2-21.6c-0.2-9,0-18-0.1-27
		c0-1.5,0.5-1.9,1.9-1.8c3,0.1,6.1,0.1,9.1,0c1.7-0.1,2.1,0.5,2.1,2.1c-0.1,8.4,0,16.8,0,25.2c0,1.7,0.1,3.4,0.6,5
		c1.1,3.5,3.4,5.8,7.1,6.5c3.7,0.7,6.8-0.5,9.2-3.4c1.9-2.3,2.7-5,2.7-7.9c0-8.4,0-16.8,0-25.2c0-1.7,0.4-2.4,2.2-2.3
		c3,0.2,6.1,0.1,9.1,0c1.4,0,1.9,0.3,1.9,1.8c-0.1,14.6,0.2,29.3-0.1,43.9c-0.3,13.5-11.7,24.4-25.3,24.9c-7.3,0.2-7.4,0.2-7.3-7
		c0-2-0.9-4.6,0.4-5.8c1.2-1.3,3.8-0.3,5.8-0.3C596.3,191.8,600.7,189.1,603.1,183.4z"/>
	<path class="st0" d="M755.5,159.8c0,7.8,0,15.6,0,23.5c0,0.7,0.5,1.9-0.8,2c-1,0.1-2.2,0.4-3-0.7c-0.8-1.3-1.9-2.4-2.6-3.7
		c-1.1-2.1-2.1-2.3-4.1-0.7c-4.3,3.6-9.3,6-15.1,6.1c-16.3,0.4-28.1-12.6-26.5-29c1.2-12.5,8.3-21.2,19.5-24.1
		c8.4-2.2,15.8,0.1,22.3,5.6c1.7,1.4,2.6,1.6,3.8-0.4c0.7-1.2,1.8-2.2,2.7-3.3c0.9-1,2-0.8,3-0.6c1.2,0.2,0.7,1.4,0.7,2.1
		C755.6,144.3,755.5,152,755.5,159.8z M742.3,159.4c0-6.6-4.6-12.4-10.9-13.7c-5.9-1.2-11.6,2-13.8,7.6c-2.6,6.7-0.5,14.6,4.7,17.8
		c1,0.6,2.1,1.1,3.2,1.4C734,175,742.3,168.4,742.3,159.4z"/>
	<path class="st2" d="M335.5,136.2c8.4-4.7,16.1-3.6,23.3,1.7c5.8,4.3,8.9,10.2,9.1,17.5c0.2,9.3,0,18.7,0.1,28c0,1.6-0.4,2-2,1.9
		c-2.9-0.1-5.9-0.1-8.8,0c-1.8,0.1-2.4-0.4-2.4-2.3c0.1-8.7,0-17.5,0.1-26.2c0-5.8-4-10.2-9.4-10.3c-5.6-0.1-9.9,4.1-9.9,10.1
		c-0.1,8.7-0.1,17.5,0,26.2c0,2.2-0.6,2.7-2.7,2.6c-2.8-0.2-5.6-0.1-8.3,0c-1.6,0.1-2.1-0.4-2.1-2.1c0.1-7.5,0-15,0-22.5
		c0-14.8,0-29.6,0-44.4c0-1.9,0.5-2.5,2.4-2.4c2.7,0.2,5.4,0.2,8.1,0c2-0.1,2.8,0.4,2.7,2.6c-0.2,5.6-0.1,11.3-0.1,16.9
		C335.5,134.3,335.5,135.1,335.5,136.2z"/>
	<path class="st2" d="M286.1,185.3c-4.8,0-9.6-0.1-14.4,0c-1.5,0-2.1-0.4-2-2c0.1-3,0.1-6.1,0-9.1c-0.1-1.8,0.7-2.1,2.2-2
		c8.6,0.1,17.2,0,25.7,0c0.8,0,1.5,0,2.3-0.1c1.8-0.3,2.7-1.4,2.7-3.1c0-1.9-1.4-2.1-2.8-2.1c-4.5,0-9.1,0-13.6-0.1
		c-7.2-0.2-13-4.2-15.4-10.6c-2.3-6.1-0.7-13.1,4.1-17.6c3-2.8,6.6-4.3,10.7-4.3c8.2-0.1,16.5,0,24.7-0.1c1.5,0,2.1,0.4,2,2
		c-0.1,3-0.1,6.1,0,9.1c0.1,1.8-0.6,2.1-2.2,2.1c-7.7-0.1-15.5,0-23.2,0c-2.7,0-4.2,1.2-4.3,3.2c0,2,1.6,3.3,4.2,3.3
		c4.1,0,8.2,0,12.4,0c9.5,0.1,16.3,6.4,16.3,15.2c0,9.1-7.1,16.1-16.4,16.2C294.8,185.3,290.4,185.3,286.1,185.3z"/>
	<path class="st2" d="M426.2,159.1c0.1,15.1-11.2,27.1-25.6,27.2c-14.7,0.1-26.4-11.7-26.4-26.7c-0.1-15.2,11.3-27.1,25.9-27.2
		C415.1,132.2,426.1,143.5,426.2,159.1z M413.1,159.4c0-8-5.4-13.9-12.8-13.9c-7.4,0-12.9,5.9-12.9,13.8c0,7.7,5.7,13.8,12.8,13.8
		C407.6,173.2,413,167.4,413.1,159.4z"/>
</g>
</svg>
